<svg id="wave" style="transform:rotate(180deg); transition: 0.3s" viewBox="0 0 1440 490" version="1.1" xmlns="http://www.w3.org/2000/svg"><defs><linearGradient id="sw-gradient-0" x1="0" x2="0" y1="1" y2="0"><stop stop-color="rgba(230, 240, 255, 1)" offset="0%"></stop><stop stop-color="rgba(255, 255, 255, 1)" offset="100%"></stop></linearGradient></defs><path style="transform:translate(0, 0px); opacity:1" fill="url(#sw-gradient-0)" d="M0,245L60,269.5C120,294,240,343,360,359.3C480,376,600,359,720,294C840,229,960,114,1080,98C1200,82,1320,163,1440,187.8C1560,212,1680,180,1800,155.2C1920,131,2040,114,2160,155.2C2280,196,2400,294,2520,285.8C2640,278,2760,163,2880,106.2C3000,49,3120,49,3240,89.8C3360,131,3480,212,3600,220.5C3720,229,3840,163,3960,187.8C4080,212,4200,327,4320,375.7C4440,425,4560,408,4680,400.2C4800,392,4920,392,5040,383.8C5160,376,5280,359,5400,367.5C5520,376,5640,408,5760,383.8C5880,359,6000,278,6120,261.3C6240,245,6360,294,6480,294C6600,294,6720,245,6840,212.3C6960,180,7080,163,7200,204.2C7320,245,7440,343,7560,375.7C7680,408,7800,376,7920,375.7C8040,376,8160,408,8280,392C8400,376,8520,310,8580,277.7L8640,245L8640,490L8580,490C8520,490,8400,490,8280,490C8160,490,8040,490,7920,490C7800,490,7680,490,7560,490C7440,490,7320,490,7200,490C7080,490,6960,490,6840,490C6720,490,6600,490,6480,490C6360,490,6240,490,6120,490C6000,490,5880,490,5760,490C5640,490,5520,490,5400,490C5280,490,5160,490,5040,490C4920,490,4800,490,4680,490C4560,490,4440,490,4320,490C4200,490,4080,490,3960,490C3840,490,3720,490,3600,490C3480,490,3360,490,3240,490C3120,490,3000,490,2880,490C2760,490,2640,490,2520,490C2400,490,2280,490,2160,490C2040,490,1920,490,1800,490C1680,490,1560,490,1440,490C1320,490,1200,490,1080,490C960,490,840,490,720,490C600,490,480,490,360,490C240,490,120,490,60,490L0,490Z"></path></svg>